<svg width="205" height="24" viewBox="0 0 205 24" fill="none" xmlns="http://www.w3.org/2000/svg">
<path d="M8.42496 15.6056V8.36338H9.28128C11.6851 8.36338 12.8371 9.6805 12.8371 11.9845C12.8371 14.2885 11.6851 15.6056 9.28128 15.6056H8.42496ZM9.28128 23.5199C16.2278 23.5199 21.3926 18.6815 21.3926 11.9999C21.3926 5.31826 16.2394 0.479858 9.28128 0.479858H0V23.5199H9.28128Z" fill="black"/>
<path d="M23.0859 23.5199H38.4228V16.8383H31.5108V14.6879H37.5665V9.05457H31.5108V7.13457H38.108V0.479858H23.0859V23.5199Z" fill="black"/>
<path d="M53.4473 9.35026L49.5305 0.479858H40.6754V23.5199H49.1042V14.4882L53.0863 23.5199H61.8722V0.479858H53.4473V9.35026Z" fill="black"/>
<path d="M64.2303 23.5199H72.6552V0.479858H64.2303V23.5199Z" fill="black"/>
<path d="M101.878 0.479858H91.0151L88.3808 9.36562L85.7504 0.479858H74.8871V23.5199H83.312V13.7624L86.2112 23.5199H90.5543L93.4496 13.7778V23.5199H101.878V0.479858Z" fill="black"/>
<path d="M112.587 7.14609V23.5199H121.012V7.16146H124.303V0.479858H109.292V7.16146L112.587 7.14609Z" fill="black"/>
<path d="M126.433 23.5199H141.77V16.8383H134.858V14.6879H140.914V9.05457H134.858V7.13457H141.432V0.479858H126.433V23.5199Z" fill="black"/>
<path d="M151.524 19.5224H156.036L156.839 23.5199H163.751L158.156 0.479858H149.401L143.841 23.5199H150.753L151.524 19.5224ZM154.919 13.893H152.615L153.767 8.10226L154.919 13.893Z" fill="black"/>
<path d="M173.923 16.1663H174.418L177.939 23.5199H186.364L182.052 14.5343C183.02 13.8419 183.815 12.935 184.375 11.8845C184.934 10.834 185.243 9.66833 185.277 8.47857C185.277 2.75313 180.439 0.479858 176.887 0.479858H165.859V23.5199H173.923V16.1663ZM174.587 6.65457C175.739 6.65457 176.757 7.18066 176.757 8.39794C176.757 9.54994 175.704 10.0107 174.618 10.0107H173.926V6.65457H174.587Z" fill="black"/>
<path d="M194.016 17.2684C191.388 17.2684 188.829 15.3019 187.679 14.1523V21.6039C189.847 23.7716 193.029 24 194.868 24C200.121 24 204.719 21.1432 204.719 15.2361C204.719 12.7394 203.341 10.7032 201.437 9.88258C198.94 8.76774 196.118 8.93032 196.118 7.68387C196.118 6.99484 197.364 6.90968 197.693 6.90968C199.466 6.90968 201.502 7.33548 203.887 9.04645V2.36517C201.293 0.2942 198.731 0 196.203 0C192.561 0 187.273 1.74194 187.273 7.68387C187.273 15.6271 195.909 14.1523 195.909 16.2852C195.921 16.8116 195.526 17.2684 194.016 17.2684Z" fill="black"/>
</svg>
